@startuml

interface State
note left:<size:9>抽象状态角色,定义一个接口封装与Context的一个特定接口的相关行为
class ConcreteStateA
note left:<size:9>具体状态角色,每一个子类实现一个与Context的一个状态的相关行为
class ConcreteStateB
class Context
note left:<size:9>环境角色,用于维护State实例,这个实例定义当前状态

ConcreteStateA --|> State
ConcreteStateB --|> State

State --o Context

interface State {
    +operation1():void
    +operation2():void
}

class Context {
    -state: State
    +getState(): State
}

@enduml